<?xml version="1.0" encoding="UTF-8" standalone="no"?>
<!DOCTYPE svg PUBLIC "-//W3C//DTD SVG 1.1//EN"
 "http://www.w3.org/Graphics/SVG/1.1/DTD/svg11.dtd">
<!-- Generated by graphviz version 2.43.0 (0)
 -->
<!-- Title: inheritancec3ef874399 Pages: 1 -->
<svg width="152pt" height="360pt"
 viewBox="0.00 0.00 152.00 360.00" xmlns="http://www.w3.org/2000/svg" xmlns:xlink="http://www.w3.org/1999/xlink">
<g id="graph0" class="graph" transform="scale(1 1) rotate(0) translate(4 356)">
<title>inheritancec3ef874399</title>
<!-- Concat -->
<g id="node1" class="node">
<title>Concat</title>
<g id="a_node1"><a xlink:href="../reference/api.html#scanspec.specs.Concat" xlink:title="Concatenate two Specs together, running one after the other. Each Dimension" target="_top">
<polygon fill="white" stroke="black" stroke-width="0.5" points="144,-352 90,-352 90,-333 144,-333 144,-352"/>
<text text-anchor="middle" x="117" y="-340" font-family="Vera Sans, DejaVu Sans, Liberation Sans, Arial, Helvetica, sans" font-size="10.00">Concat</text>
</a>
</g>
</g>
<!-- Spec -->
<g id="node2" class="node">
<title>Spec</title>
<g id="a_node2"><a xlink:href="../reference/api.html#scanspec.specs.Spec" xlink:title="Definition: A spec is a serializable representation of the type, parameters" target="_top">
<polygon fill="white" stroke="black" stroke-width="0.5" points="54,-185 0,-185 0,-166 54,-166 54,-185"/>
<text text-anchor="middle" x="27" y="-173" font-family="Vera Sans, DejaVu Sans, Liberation Sans, Arial, Helvetica, sans" font-size="10.00">Spec</text>
</a>
</g>
</g>
<!-- Spec&#45;&gt;Concat -->
<g id="edge1" class="edge">
<title>Spec&#45;&gt;Concat</title>
<path fill="none" stroke="black" stroke-width="0.5" d="M30.02,-185.19C35.68,-210.49 53.72,-279.61 90,-324.5 91.52,-326.38 93.28,-328.14 95.16,-329.77"/>
<polygon fill="black" stroke="black" stroke-width="0.5" points="94.13,-331.19 99.13,-332.93 96.31,-328.45 94.13,-331.19"/>
</g>
<!-- Line -->
<g id="node3" class="node">
<title>Line</title>
<g id="a_node3"><a xlink:href="../reference/api.html#scanspec.specs.Line" xlink:title="Linearly spaced points in the given axis, with first and last points" target="_top">
<polygon fill="white" stroke="black" stroke-width="0.5" points="144,-315 90,-315 90,-296 144,-296 144,-315"/>
<text text-anchor="middle" x="117" y="-303" font-family="Vera Sans, DejaVu Sans, Liberation Sans, Arial, Helvetica, sans" font-size="10.00">Line</text>
</a>
</g>
</g>
<!-- Spec&#45;&gt;Line -->
<g id="edge2" class="edge">
<title>Spec&#45;&gt;Line</title>
<path fill="none" stroke="black" stroke-width="0.5" d="M31.56,-185.12C39.53,-205.71 60.48,-254.87 90,-287.5 91.66,-289.34 93.55,-291.09 95.52,-292.72"/>
<polygon fill="black" stroke="black" stroke-width="0.5" points="94.64,-294.25 99.67,-295.91 96.77,-291.47 94.64,-294.25"/>
</g>
<!-- Mask -->
<g id="node4" class="node">
<title>Mask</title>
<g id="a_node4"><a xlink:href="../reference/api.html#scanspec.specs.Mask" xlink:title="Restrict the given Spec to only the midpoints that fall inside of the given" target="_top">
<polygon fill="white" stroke="black" stroke-width="0.5" points="144,-278 90,-278 90,-259 144,-259 144,-278"/>
<text text-anchor="middle" x="117" y="-266" font-family="Vera Sans, DejaVu Sans, Liberation Sans, Arial, Helvetica, sans" font-size="10.00">Mask</text>
</a>
</g>
</g>
<!-- Spec&#45;&gt;Mask -->
<g id="edge3" class="edge">
<title>Spec&#45;&gt;Mask</title>
<path fill="none" stroke="black" stroke-width="0.5" d="M34.69,-185.22C45.33,-200.25 67.23,-229.59 90,-250.5 92.02,-252.36 94.25,-254.17 96.52,-255.9"/>
<polygon fill="black" stroke="black" stroke-width="0.5" points="95.55,-257.36 100.62,-258.89 97.61,-254.53 95.55,-257.36"/>
</g>
<!-- Product -->
<g id="node5" class="node">
<title>Product</title>
<g id="a_node5"><a xlink:href="../reference/api.html#scanspec.specs.Product" xlink:title="Outer product of two Specs, nesting inner within outer. This means that" target="_top">
<polygon fill="white" stroke="black" stroke-width="0.5" points="144,-241 90,-241 90,-222 144,-222 144,-241"/>
<text text-anchor="middle" x="117" y="-229" font-family="Vera Sans, DejaVu Sans, Liberation Sans, Arial, Helvetica, sans" font-size="10.00">Product</text>
</a>
</g>
</g>
<!-- Spec&#45;&gt;Product -->
<g id="edge4" class="edge">
<title>Spec&#45;&gt;Product</title>
<path fill="none" stroke="black" stroke-width="0.5" d="M43.33,-185.25C58.09,-194.65 80.48,-208.9 96.51,-219.1"/>
<polygon fill="black" stroke="black" stroke-width="0.5" points="95.69,-220.65 100.85,-221.86 97.57,-217.7 95.69,-220.65"/>
</g>
<!-- Repeat -->
<g id="node6" class="node">
<title>Repeat</title>
<g id="a_node6"><a xlink:href="../reference/api.html#scanspec.specs.Repeat" xlink:title="Repeat an empty frame num times. Can be used on the outside of a scan to" target="_top">
<polygon fill="white" stroke="black" stroke-width="0.5" points="144,-204 90,-204 90,-185 144,-185 144,-204"/>
<text text-anchor="middle" x="117" y="-192" font-family="Vera Sans, DejaVu Sans, Liberation Sans, Arial, Helvetica, sans" font-size="10.00">Repeat</text>
</a>
</g>
</g>
<!-- Spec&#45;&gt;Repeat -->
<g id="edge5" class="edge">
<title>Spec&#45;&gt;Repeat</title>
<path fill="none" stroke="black" stroke-width="0.5" d="M54.4,-181.2C63.97,-183.27 74.87,-185.62 84.82,-187.77"/>
<polygon fill="black" stroke="black" stroke-width="0.5" points="84.66,-189.52 89.92,-188.87 85.4,-186.1 84.66,-189.52"/>
</g>
<!-- Snake -->
<g id="node7" class="node">
<title>Snake</title>
<g id="a_node7"><a xlink:href="../reference/api.html#scanspec.specs.Snake" xlink:title="Run the Spec in reverse on every other iteration when nested inside" target="_top">
<polygon fill="white" stroke="black" stroke-width="0.5" points="144,-167 90,-167 90,-148 144,-148 144,-167"/>
<text text-anchor="middle" x="117" y="-155" font-family="Vera Sans, DejaVu Sans, Liberation Sans, Arial, Helvetica, sans" font-size="10.00">Snake</text>
</a>
</g>
</g>
<!-- Spec&#45;&gt;Snake -->
<g id="edge6" class="edge">
<title>Spec&#45;&gt;Snake</title>
<path fill="none" stroke="black" stroke-width="0.5" d="M54.4,-170.1C63.97,-168.14 74.87,-165.91 84.82,-163.88"/>
<polygon fill="black" stroke="black" stroke-width="0.5" points="85.37,-165.55 89.92,-162.83 84.67,-162.12 85.37,-165.55"/>
</g>
<!-- Spiral -->
<g id="node8" class="node">
<title>Spiral</title>
<g id="a_node8"><a xlink:href="../reference/api.html#scanspec.specs.Spiral" xlink:title="Archimedean spiral of &quot;x_axis&quot; and &quot;y_axis&quot;, starting at centre point" target="_top">
<polygon fill="white" stroke="black" stroke-width="0.5" points="144,-130 90,-130 90,-111 144,-111 144,-130"/>
<text text-anchor="middle" x="117" y="-118" font-family="Vera Sans, DejaVu Sans, Liberation Sans, Arial, Helvetica, sans" font-size="10.00">Spiral</text>
</a>
</g>
</g>
<!-- Spec&#45;&gt;Spiral -->
<g id="edge7" class="edge">
<title>Spec&#45;&gt;Spiral</title>
<path fill="none" stroke="black" stroke-width="0.5" d="M43.33,-165.92C58,-156.75 80.21,-142.87 96.21,-132.87"/>
<polygon fill="black" stroke="black" stroke-width="0.5" points="97.24,-134.29 100.55,-130.16 95.38,-131.32 97.24,-134.29"/>
</g>
<!-- Squash -->
<g id="node9" class="node">
<title>Squash</title>
<g id="a_node9"><a xlink:href="../reference/api.html#scanspec.specs.Squash" xlink:title="Squash the Dimensions together of the scan (but not the midpoints) into one" target="_top">
<polygon fill="white" stroke="black" stroke-width="0.5" points="144,-93 90,-93 90,-74 144,-74 144,-93"/>
<text text-anchor="middle" x="117" y="-81" font-family="Vera Sans, DejaVu Sans, Liberation Sans, Arial, Helvetica, sans" font-size="10.00">Squash</text>
</a>
</g>
</g>
<!-- Spec&#45;&gt;Squash -->
<g id="edge8" class="edge">
<title>Spec&#45;&gt;Squash</title>
<path fill="none" stroke="black" stroke-width="0.5" d="M34.99,-165.89C45.85,-151.31 67.83,-123.1 90,-102.5 92.31,-100.35 94.87,-98.23 97.45,-96.22"/>
<polygon fill="black" stroke="black" stroke-width="0.5" points="98.55,-97.58 101.49,-93.18 96.44,-94.79 98.55,-97.58"/>
</g>
<!-- Static -->
<g id="node10" class="node">
<title>Static</title>
<g id="a_node10"><a xlink:href="../reference/api.html#scanspec.specs.Static" xlink:title="A static point, repeated &quot;num&quot; times, with &quot;axis&quot; at &quot;value&quot;. Can" target="_top">
<polygon fill="white" stroke="black" stroke-width="0.5" points="144,-56 90,-56 90,-37 144,-37 144,-56"/>
<text text-anchor="middle" x="117" y="-44" font-family="Vera Sans, DejaVu Sans, Liberation Sans, Arial, Helvetica, sans" font-size="10.00">Static</text>
</a>
</g>
</g>
<!-- Spec&#45;&gt;Static -->
<g id="edge9" class="edge">
<title>Spec&#45;&gt;Static</title>
<path fill="none" stroke="black" stroke-width="0.5" d="M31.79,-165.81C40.06,-145.52 61.31,-97.78 90,-65.5 91.9,-63.36 94.09,-61.31 96.36,-59.41"/>
<polygon fill="black" stroke="black" stroke-width="0.5" points="97.66,-60.61 100.51,-56.15 95.5,-57.86 97.66,-60.61"/>
</g>
<!-- Zip -->
<g id="node11" class="node">
<title>Zip</title>
<g id="a_node11"><a xlink:href="../reference/api.html#scanspec.specs.Zip" xlink:title="Run two Specs in parallel, merging their midpoints together. Typically" target="_top">
<polygon fill="white" stroke="black" stroke-width="0.5" points="144,-19 90,-19 90,0 144,0 144,-19"/>
<text text-anchor="middle" x="117" y="-7" font-family="Vera Sans, DejaVu Sans, Liberation Sans, Arial, Helvetica, sans" font-size="10.00">Zip</text>
</a>
</g>
</g>
<!-- Spec&#45;&gt;Zip -->
<g id="edge10" class="edge">
<title>Spec&#45;&gt;Zip</title>
<path fill="none" stroke="black" stroke-width="0.5" d="M30.12,-165.99C36.02,-141.16 54.59,-73.24 90,-28.5 91.73,-26.31 93.78,-24.25 95.96,-22.35"/>
<polygon fill="black" stroke="black" stroke-width="0.5" points="97.17,-23.62 99.97,-19.12 94.97,-20.9 97.17,-23.62"/>
</g>
</g>
</svg>
