<?xml version="1.0" encoding="UTF-8" standalone="no"?>
<!DOCTYPE svg PUBLIC "-//W3C//DTD SVG 1.1//EN"
 "http://www.w3.org/Graphics/SVG/1.1/DTD/svg11.dtd">
<!-- Generated by graphviz version 2.43.0 (0)
 -->
<!-- Title: inheritance392524bb86 Pages: 1 -->
<svg width="355pt" height="156pt"
 viewBox="0.00 0.00 355.00 156.00" xmlns="http://www.w3.org/2000/svg" xmlns:xlink="http://www.w3.org/1999/xlink">
<g id="graph0" class="graph" transform="scale(1 1) rotate(0) translate(4 152)">
<title>inheritance392524bb86</title>
<!-- Circle -->
<g id="node1" class="node">
<title>Circle</title>
<g id="a_node1"><a xlink:href="../reference/api.html#scanspec.regions.Circle" xlink:title="Mask contains points of axis within an xy circle of given radius" target="_top">
<polygon fill="white" stroke="black" stroke-width="0.5" points="162,-130 108,-130 108,-111 162,-111 162,-130"/>
<text text-anchor="middle" x="135" y="-118" font-family="Vera Sans, DejaVu Sans, Liberation Sans, Arial, Helvetica, sans" font-size="10.00">Circle</text>
</a>
</g>
</g>
<!-- Region -->
<g id="node2" class="node">
<title>Region</title>
<g id="a_node2"><a xlink:href="../reference/api.html#scanspec.regions.Region" xlink:title="Abstract baseclass for a Region that can `Mask` a `Spec`. Supports operators:" target="_top">
<polygon fill="white" stroke="black" stroke-width="0.5" points="54,-74 0,-74 0,-55 54,-55 54,-74"/>
<text text-anchor="middle" x="27" y="-62" font-family="Vera Sans, DejaVu Sans, Liberation Sans, Arial, Helvetica, sans" font-size="10.00">Region</text>
</a>
</g>
</g>
<!-- Region&#45;&gt;Circle -->
<g id="edge1" class="edge">
<title>Region&#45;&gt;Circle</title>
<path fill="none" stroke="black" stroke-width="0.5" d="M42.4,-74.25C54.73,-82.36 73.11,-93.94 90,-102.5 94.42,-104.74 99.18,-106.92 103.89,-108.94"/>
<polygon fill="black" stroke="black" stroke-width="0.5" points="103.27,-110.58 108.56,-110.91 104.63,-107.35 103.27,-110.58"/>
</g>
<!-- CombinationOf -->
<g id="node3" class="node">
<title>CombinationOf</title>
<g id="a_node3"><a xlink:href="../reference/api.html#scanspec.regions.CombinationOf" xlink:title="Abstract baseclass for a combination of two regions, left and right" target="_top">
<polygon fill="white" stroke="black" stroke-width="0.5" points="180,-93 90,-93 90,-74 180,-74 180,-93"/>
<text text-anchor="middle" x="135" y="-81" font-family="Vera Sans, DejaVu Sans, Liberation Sans, Arial, Helvetica, sans" font-size="10.00">CombinationOf</text>
</a>
</g>
</g>
<!-- Region&#45;&gt;CombinationOf -->
<g id="edge2" class="edge">
<title>Region&#45;&gt;CombinationOf</title>
<path fill="none" stroke="black" stroke-width="0.5" d="M54.2,-69.2C63.48,-70.86 74.23,-72.79 84.79,-74.68"/>
<polygon fill="black" stroke="black" stroke-width="0.5" points="84.72,-76.44 89.95,-75.6 85.34,-73 84.72,-76.44"/>
</g>
<!-- Range -->
<g id="node6" class="node">
<title>Range</title>
<g id="a_node6"><a xlink:href="../reference/api.html#scanspec.regions.Range" xlink:title="Mask contains points of key &gt;= min and &lt;= max" target="_top">
<polygon fill="white" stroke="black" stroke-width="0.5" points="162,-56 108,-56 108,-37 162,-37 162,-56"/>
<text text-anchor="middle" x="135" y="-44" font-family="Vera Sans, DejaVu Sans, Liberation Sans, Arial, Helvetica, sans" font-size="10.00">Range</text>
</a>
</g>
</g>
<!-- Region&#45;&gt;Range -->
<g id="edge5" class="edge">
<title>Region&#45;&gt;Range</title>
<path fill="none" stroke="black" stroke-width="0.5" d="M54.2,-60.05C68.85,-57.56 87.21,-54.44 102.63,-51.83"/>
<polygon fill="black" stroke="black" stroke-width="0.5" points="103.1,-53.52 107.73,-50.96 102.51,-50.07 103.1,-53.52"/>
</g>
<!-- Rectangle -->
<g id="node7" class="node">
<title>Rectangle</title>
<g id="a_node7"><a xlink:href="../reference/api.html#scanspec.regions.Rectangle" xlink:title="Mask contains points of axis within a rotated xy rectangle" target="_top">
<polygon fill="white" stroke="black" stroke-width="0.5" points="167.5,-19 102.5,-19 102.5,0 167.5,0 167.5,-19"/>
<text text-anchor="middle" x="135" y="-7" font-family="Vera Sans, DejaVu Sans, Liberation Sans, Arial, Helvetica, sans" font-size="10.00">Rectangle</text>
</a>
</g>
</g>
<!-- Region&#45;&gt;Rectangle -->
<g id="edge6" class="edge">
<title>Region&#45;&gt;Rectangle</title>
<path fill="none" stroke="black" stroke-width="0.5" d="M43.26,-54.96C55.64,-47.38 73.66,-36.73 90,-28.5 95.01,-25.98 100.42,-23.47 105.69,-21.14"/>
<polygon fill="black" stroke="black" stroke-width="0.5" points="106.59,-22.65 110.47,-19.05 105.19,-19.45 106.59,-22.65"/>
</g>
<!-- DifferenceOf -->
<g id="node4" class="node">
<title>DifferenceOf</title>
<g id="a_node4"><a xlink:href="../reference/api.html#scanspec.regions.DifferenceOf" xlink:title="A point is in DifferenceOf(a, b) if it is in a and not in b. Typically" target="_top">
<polygon fill="white" stroke="black" stroke-width="0.5" points="320.5,-148 242.5,-148 242.5,-129 320.5,-129 320.5,-148"/>
<text text-anchor="middle" x="281.5" y="-136" font-family="Vera Sans, DejaVu Sans, Liberation Sans, Arial, Helvetica, sans" font-size="10.00">DifferenceOf</text>
</a>
</g>
</g>
<!-- CombinationOf&#45;&gt;DifferenceOf -->
<g id="edge3" class="edge">
<title>CombinationOf&#45;&gt;DifferenceOf</title>
<path fill="none" stroke="black" stroke-width="0.5" d="M158.95,-93.12C165.76,-96.05 173.21,-99.34 180,-102.5 196.22,-110.05 199.31,-114.07 216,-120.5 222.79,-123.12 230.11,-125.53 237.3,-127.68"/>
<polygon fill="black" stroke="black" stroke-width="0.5" points="236.96,-129.4 242.25,-129.13 237.94,-126.04 236.96,-129.4"/>
</g>
<!-- IntersectionOf -->
<g id="node5" class="node">
<title>IntersectionOf</title>
<g id="a_node5"><a xlink:href="../reference/api.html#scanspec.regions.IntersectionOf" xlink:title="A point is in IntersectionOf(a, b) if it is in both a and b. Typically" target="_top">
<polygon fill="white" stroke="black" stroke-width="0.5" points="324.5,-111 238.5,-111 238.5,-92 324.5,-92 324.5,-111"/>
<text text-anchor="middle" x="281.5" y="-99" font-family="Vera Sans, DejaVu Sans, Liberation Sans, Arial, Helvetica, sans" font-size="10.00">IntersectionOf</text>
</a>
</g>
</g>
<!-- CombinationOf&#45;&gt;IntersectionOf -->
<g id="edge4" class="edge">
<title>CombinationOf&#45;&gt;IntersectionOf</title>
<path fill="none" stroke="black" stroke-width="0.5" d="M180.14,-89C196.84,-91.08 215.91,-93.45 232.91,-95.57"/>
<polygon fill="black" stroke="black" stroke-width="0.5" points="232.94,-97.34 238.12,-96.22 233.37,-93.87 232.94,-97.34"/>
</g>
<!-- SymmetricDifferenceOf -->
<g id="node8" class="node">
<title>SymmetricDifferenceOf</title>
<g id="a_node8"><a xlink:href="../reference/api.html#scanspec.regions.SymmetricDifferenceOf" xlink:title="A point is in SymmetricDifferenceOf(a, b) if it is in either a or b," target="_top">
<polygon fill="white" stroke="black" stroke-width="0.5" points="347,-74 216,-74 216,-55 347,-55 347,-74"/>
<text text-anchor="middle" x="281.5" y="-62" font-family="Vera Sans, DejaVu Sans, Liberation Sans, Arial, Helvetica, sans" font-size="10.00">SymmetricDifferenceOf</text>
</a>
</g>
</g>
<!-- CombinationOf&#45;&gt;SymmetricDifferenceOf -->
<g id="edge7" class="edge">
<title>CombinationOf&#45;&gt;SymmetricDifferenceOf</title>
<path fill="none" stroke="black" stroke-width="0.5" d="M180.14,-77.7C189.84,-76.42 200.34,-75.04 210.77,-73.67"/>
<polygon fill="black" stroke="black" stroke-width="0.5" points="211.15,-75.38 215.88,-73 210.7,-71.91 211.15,-75.38"/>
</g>
<!-- UnionOf -->
<g id="node9" class="node">
<title>UnionOf</title>
<g id="a_node9"><a xlink:href="../reference/api.html#scanspec.regions.UnionOf" xlink:title="A point is in UnionOf(a, b) if it is in either a or b. Typically" target="_top">
<polygon fill="white" stroke="black" stroke-width="0.5" points="309.5,-37 253.5,-37 253.5,-18 309.5,-18 309.5,-37"/>
<text text-anchor="middle" x="281.5" y="-25" font-family="Vera Sans, DejaVu Sans, Liberation Sans, Arial, Helvetica, sans" font-size="10.00">UnionOf</text>
</a>
</g>
</g>
<!-- CombinationOf&#45;&gt;UnionOf -->
<g id="edge8" class="edge">
<title>CombinationOf&#45;&gt;UnionOf</title>
<path fill="none" stroke="black" stroke-width="0.5" d="M160.85,-73.83C167.15,-71.24 173.87,-68.36 180,-65.5 196.39,-57.84 199.24,-53.31 216,-46.5 226.32,-42.31 237.9,-38.6 248.37,-35.6"/>
<polygon fill="black" stroke="black" stroke-width="0.5" points="249.08,-37.22 253.42,-34.19 248.13,-33.85 249.08,-37.22"/>
</g>
</g>
</svg>
