<?xml version="1.0" encoding="UTF-8" standalone="no"?>
<!DOCTYPE svg PUBLIC "-//W3C//DTD SVG 1.1//EN"
 "http://www.w3.org/Graphics/SVG/1.1/DTD/svg11.dtd">
<!-- Generated by graphviz version 2.40.1 (20161225.0304)
 -->
<!-- Title: inheritancec3ef874399 Pages: 1 -->
<svg width="152pt" height="323pt"
 viewBox="0.00 0.00 152.00 323.00" xmlns="http://www.w3.org/2000/svg" xmlns:xlink="http://www.w3.org/1999/xlink">
<g id="graph0" class="graph" transform="scale(1 1) rotate(0) translate(4 319)">
<title>inheritancec3ef874399</title>
<!-- Concat -->
<g id="node1" class="node">
<title>Concat</title>
<g id="a_node1"><a xlink:href="../reference/api.html#scanspec.specs.Concat" xlink:title="Concatenate two Specs together, running one after the other. Each Dimension" target="_top">
<polygon fill="#ffffff" stroke="#000000" stroke-width=".5" points="144,-315 90,-315 90,-296 144,-296 144,-315"/>
<text text-anchor="middle" x="117" y="-303" font-family="Vera Sans, DejaVu Sans, Liberation Sans, Arial, Helvetica, sans" font-size="10.00" fill="#000000">Concat</text>
</a>
</g>
</g>
<!-- Spec -->
<g id="node2" class="node">
<title>Spec</title>
<g id="a_node2"><a xlink:href="../reference/api.html#scanspec.specs.Spec" xlink:title="Abstract baseclass for the specification of a scan. Supports operators:" target="_top">
<polygon fill="#ffffff" stroke="#000000" stroke-width=".5" points="54,-167 0,-167 0,-148 54,-148 54,-167"/>
<text text-anchor="middle" x="27" y="-155" font-family="Vera Sans, DejaVu Sans, Liberation Sans, Arial, Helvetica, sans" font-size="10.00" fill="#000000">Spec</text>
</a>
</g>
</g>
<!-- Spec&#45;&gt;Concat -->
<g id="edge1" class="edge">
<title>Spec&#45;&gt;Concat</title>
<path fill="none" stroke="#000000" stroke-width=".5" d="M29.7829,-167.3153C36.7298,-190.4494 56.7078,-249.3132 90,-287.5 91.6266,-289.3658 93.4903,-291.1213 95.4616,-292.7496"/>
<polygon fill="#000000" stroke="#000000" stroke-width=".5" points="94.5779,-294.2759 99.6179,-295.9073 96.6953,-291.489 94.5779,-294.2759"/>
</g>
<!-- Line -->
<g id="node3" class="node">
<title>Line</title>
<g id="a_node3"><a xlink:href="../reference/api.html#scanspec.specs.Line" xlink:title="Linearly spaced points in the given key, with first and last points" target="_top">
<polygon fill="#ffffff" stroke="#000000" stroke-width=".5" points="144,-278 90,-278 90,-259 144,-259 144,-278"/>
<text text-anchor="middle" x="117" y="-266" font-family="Vera Sans, DejaVu Sans, Liberation Sans, Arial, Helvetica, sans" font-size="10.00" fill="#000000">Line</text>
</a>
</g>
</g>
<!-- Spec&#45;&gt;Line -->
<g id="edge2" class="edge">
<title>Spec&#45;&gt;Line</title>
<path fill="none" stroke="#000000" stroke-width=".5" d="M31.8611,-167.0853C41.2754,-184.9984 63.4257,-224.1218 90,-250.5 91.9492,-252.4348 94.1351,-254.2855 96.397,-256.0139"/>
<polygon fill="#000000" stroke="#000000" stroke-width=".5" points="95.4366,-257.4789 100.5155,-258.9847 97.4842,-254.6403 95.4366,-257.4789"/>
</g>
<!-- Mask -->
<g id="node4" class="node">
<title>Mask</title>
<g id="a_node4"><a xlink:href="../reference/api.html#scanspec.specs.Mask" xlink:title="Restrict the given Spec to only the positions that fall inside the given" target="_top">
<polygon fill="#ffffff" stroke="#000000" stroke-width=".5" points="144,-241 90,-241 90,-222 144,-222 144,-241"/>
<text text-anchor="middle" x="117" y="-229" font-family="Vera Sans, DejaVu Sans, Liberation Sans, Arial, Helvetica, sans" font-size="10.00" fill="#000000">Mask</text>
</a>
</g>
</g>
<!-- Spec&#45;&gt;Mask -->
<g id="edge3" class="edge">
<title>Spec&#45;&gt;Mask</title>
<path fill="none" stroke="#000000" stroke-width=".5" d="M36.8849,-167.0671C48.9865,-178.5925 70.3061,-198.2998 90,-213.5 92.3414,-215.3071 94.858,-217.1301 97.3795,-218.8864"/>
<polygon fill="#000000" stroke="#000000" stroke-width=".5" points="96.7692,-220.5882 101.8866,-221.9579 98.7403,-217.696 96.7692,-220.5882"/>
</g>
<!-- Product -->
<g id="node5" class="node">
<title>Product</title>
<g id="a_node5"><a xlink:href="../reference/api.html#scanspec.specs.Product" xlink:title="Outer product of two Specs, nesting inner within outer. This means that" target="_top">
<polygon fill="#ffffff" stroke="#000000" stroke-width=".5" points="144,-204 90,-204 90,-185 144,-185 144,-204"/>
<text text-anchor="middle" x="117" y="-192" font-family="Vera Sans, DejaVu Sans, Liberation Sans, Arial, Helvetica, sans" font-size="10.00" fill="#000000">Product</text>
</a>
</g>
</g>
<!-- Spec&#45;&gt;Product -->
<g id="edge4" class="edge">
<title>Spec&#45;&gt;Product</title>
<path fill="none" stroke="#000000" stroke-width=".5" d="M50.1772,-167.0284C61.9479,-171.8675 76.347,-177.7871 88.7607,-182.8905"/>
<polygon fill="#000000" stroke="#000000" stroke-width=".5" points="88.2986,-184.5926 93.5885,-184.8753 89.6295,-181.3555 88.2986,-184.5926"/>
</g>
<!-- Snake -->
<g id="node6" class="node">
<title>Snake</title>
<g id="a_node6"><a xlink:href="../reference/api.html#scanspec.specs.Snake" xlink:title="Run the Spec in reverse on every other iteration when nested inside" target="_top">
<polygon fill="#ffffff" stroke="#000000" stroke-width=".5" points="144,-167 90,-167 90,-148 144,-148 144,-167"/>
<text text-anchor="middle" x="117" y="-155" font-family="Vera Sans, DejaVu Sans, Liberation Sans, Arial, Helvetica, sans" font-size="10.00" fill="#000000">Snake</text>
</a>
</g>
</g>
<!-- Spec&#45;&gt;Snake -->
<g id="edge5" class="edge">
<title>Spec&#45;&gt;Snake</title>
<path fill="none" stroke="#000000" stroke-width=".5" d="M54.003,-157.5C63.615,-157.5 74.5386,-157.5 84.559,-157.5"/>
<polygon fill="#000000" stroke="#000000" stroke-width=".5" points="84.7051,-159.2501 89.705,-157.5 84.705,-155.7501 84.7051,-159.2501"/>
</g>
<!-- Spiral -->
<g id="node7" class="node">
<title>Spiral</title>
<g id="a_node7"><a xlink:href="../reference/api.html#scanspec.specs.Spiral" xlink:title="Archimedean spiral of &quot;x_key&quot; and &quot;y_key&quot;, starting at centre point" target="_top">
<polygon fill="#ffffff" stroke="#000000" stroke-width=".5" points="144,-130 90,-130 90,-111 144,-111 144,-130"/>
<text text-anchor="middle" x="117" y="-118" font-family="Vera Sans, DejaVu Sans, Liberation Sans, Arial, Helvetica, sans" font-size="10.00" fill="#000000">Spiral</text>
</a>
</g>
</g>
<!-- Spec&#45;&gt;Spiral -->
<g id="edge6" class="edge">
<title>Spec&#45;&gt;Spiral</title>
<path fill="none" stroke="#000000" stroke-width=".5" d="M50.1772,-147.9716C61.9479,-143.1325 76.347,-137.2129 88.7607,-132.1095"/>
<polygon fill="#000000" stroke="#000000" stroke-width=".5" points="89.6295,-133.6445 93.5885,-130.1247 88.2986,-130.4074 89.6295,-133.6445"/>
</g>
<!-- Squash -->
<g id="node8" class="node">
<title>Squash</title>
<g id="a_node8"><a xlink:href="../reference/api.html#scanspec.specs.Squash" xlink:title="Squash the Dimensions together of the scan (but not positions) into one" target="_top">
<polygon fill="#ffffff" stroke="#000000" stroke-width=".5" points="144,-93 90,-93 90,-74 144,-74 144,-93"/>
<text text-anchor="middle" x="117" y="-81" font-family="Vera Sans, DejaVu Sans, Liberation Sans, Arial, Helvetica, sans" font-size="10.00" fill="#000000">Squash</text>
</a>
</g>
</g>
<!-- Spec&#45;&gt;Squash -->
<g id="edge7" class="edge">
<title>Spec&#45;&gt;Squash</title>
<path fill="none" stroke="#000000" stroke-width=".5" d="M37.4131,-147.8097C49.6766,-136.5404 70.8123,-117.5601 90,-102.5 92.663,-100.4098 95.5344,-98.2728 98.3763,-96.2217"/>
<polygon fill="#000000" stroke="#000000" stroke-width=".5" points="99.7224,-97.412 102.7836,-93.0886 97.6945,-94.5593 99.7224,-97.412"/>
</g>
<!-- Static -->
<g id="node9" class="node">
<title>Static</title>
<g id="a_node9"><a xlink:href="../reference/api.html#scanspec.specs.Static" xlink:title="A static point, repeated &quot;num&quot; times, with &quot;key&quot; at &quot;value&quot;. Can" target="_top">
<polygon fill="#ffffff" stroke="#000000" stroke-width=".5" points="144,-56 90,-56 90,-37 144,-37 144,-56"/>
<text text-anchor="middle" x="117" y="-44" font-family="Vera Sans, DejaVu Sans, Liberation Sans, Arial, Helvetica, sans" font-size="10.00" fill="#000000">Static</text>
</a>
</g>
</g>
<!-- Spec&#45;&gt;Static -->
<g id="edge8" class="edge">
<title>Spec&#45;&gt;Static</title>
<path fill="none" stroke="#000000" stroke-width=".5" d="M32.0979,-147.8073C41.7391,-130.0734 64.0227,-91.8111 90,-65.5 92.2199,-63.2516 94.7357,-61.0905 97.317,-59.0833"/>
<polygon fill="#000000" stroke="#000000" stroke-width=".5" points="98.4164,-60.4469 101.3943,-56.0656 96.3342,-57.6336 98.4164,-60.4469"/>
</g>
<!-- Zip -->
<g id="node10" class="node">
<title>Zip</title>
<g id="a_node10"><a xlink:href="../reference/api.html#scanspec.specs.Zip" xlink:title="Run two Specs in parallel, merging their positions together. Typically" target="_top">
<polygon fill="#ffffff" stroke="#000000" stroke-width=".5" points="144,-19 90,-19 90,0 144,0 144,-19"/>
<text text-anchor="middle" x="117" y="-7" font-family="Vera Sans, DejaVu Sans, Liberation Sans, Arial, Helvetica, sans" font-size="10.00" fill="#000000">Zip</text>
</a>
</g>
</g>
<!-- Spec&#45;&gt;Zip -->
<g id="edge9" class="edge">
<title>Spec&#45;&gt;Zip</title>
<path fill="none" stroke="#000000" stroke-width=".5" d="M29.867,-147.8163C36.9955,-124.9814 57.3376,-66.8135 90,-28.5 91.8593,-26.3191 94.0222,-24.2653 96.2993,-22.3721"/>
<polygon fill="#000000" stroke="#000000" stroke-width=".5" points="97.5914,-23.5856 100.4804,-19.1452 95.4529,-20.8148 97.5914,-23.5856"/>
</g>
</g>
</svg>
