<?xml version="1.0" encoding="UTF-8" standalone="no"?>
<!DOCTYPE svg PUBLIC "-//W3C//DTD SVG 1.1//EN"
 "http://www.w3.org/Graphics/SVG/1.1/DTD/svg11.dtd">
<!-- Generated by graphviz version 2.43.0 (0)
 -->
<!-- Title: inheritancec3ef874399 Pages: 1 -->
<svg width="152pt" height="323pt"
 viewBox="0.00 0.00 152.00 323.00" xmlns="http://www.w3.org/2000/svg" xmlns:xlink="http://www.w3.org/1999/xlink">
<g id="graph0" class="graph" transform="scale(1 1) rotate(0) translate(4 319)">
<title>inheritancec3ef874399</title>
<!-- Concat -->
<g id="node1" class="node">
<title>Concat</title>
<g id="a_node1"><a xlink:href="../reference/api.html#scanspec.specs.Concat" xlink:title="Concatenate two Specs together, running one after the other. Each Dimension" target="_top">
<polygon fill="white" stroke="black" stroke-width="0.5" points="144,-315 90,-315 90,-296 144,-296 144,-315"/>
<text text-anchor="middle" x="117" y="-303" font-family="Vera Sans, DejaVu Sans, Liberation Sans, Arial, Helvetica, sans" font-size="10.00">Concat</text>
</a>
</g>
</g>
<!-- Spec -->
<g id="node2" class="node">
<title>Spec</title>
<g id="a_node2"><a xlink:href="../reference/api.html#scanspec.specs.Spec" xlink:title="Definition: A spec is a serializable representation of the type, parameters" target="_top">
<polygon fill="white" stroke="black" stroke-width="0.5" points="54,-167 0,-167 0,-148 54,-148 54,-167"/>
<text text-anchor="middle" x="27" y="-155" font-family="Vera Sans, DejaVu Sans, Liberation Sans, Arial, Helvetica, sans" font-size="10.00">Spec</text>
</a>
</g>
</g>
<!-- Spec&#45;&gt;Concat -->
<g id="edge1" class="edge">
<title>Spec&#45;&gt;Concat</title>
<path fill="none" stroke="black" stroke-width="0.5" d="M30.74,-167.28C37.59,-190.33 57.26,-249.04 90,-287.5 91.56,-289.34 93.36,-291.07 95.25,-292.69"/>
<polygon fill="black" stroke="black" stroke-width="0.5" points="94.24,-294.12 99.25,-295.83 96.4,-291.37 94.24,-294.12"/>
</g>
<!-- Line -->
<g id="node3" class="node">
<title>Line</title>
<g id="a_node3"><a xlink:href="../reference/api.html#scanspec.specs.Line" xlink:title="Linearly spaced points in the given axis, with first and last points" target="_top">
<polygon fill="white" stroke="black" stroke-width="0.5" points="144,-278 90,-278 90,-259 144,-259 144,-278"/>
<text text-anchor="middle" x="117" y="-266" font-family="Vera Sans, DejaVu Sans, Liberation Sans, Arial, Helvetica, sans" font-size="10.00">Line</text>
</a>
</g>
</g>
<!-- Spec&#45;&gt;Line -->
<g id="edge2" class="edge">
<title>Spec&#45;&gt;Line</title>
<path fill="none" stroke="black" stroke-width="0.5" d="M32.79,-167.05C42.07,-184.9 63.89,-223.93 90,-250.5 91.78,-252.31 93.77,-254.06 95.83,-255.7"/>
<polygon fill="black" stroke="black" stroke-width="0.5" points="95.07,-257.32 100.12,-258.92 97.17,-254.52 95.07,-257.32"/>
</g>
<!-- Mask -->
<g id="node4" class="node">
<title>Mask</title>
<g id="a_node4"><a xlink:href="../reference/api.html#scanspec.specs.Mask" xlink:title="Restrict the given Spec to only the midpoints that fall inside of the given" target="_top">
<polygon fill="white" stroke="black" stroke-width="0.5" points="144,-241 90,-241 90,-222 144,-222 144,-241"/>
<text text-anchor="middle" x="117" y="-229" font-family="Vera Sans, DejaVu Sans, Liberation Sans, Arial, Helvetica, sans" font-size="10.00">Mask</text>
</a>
</g>
</g>
<!-- Spec&#45;&gt;Mask -->
<g id="edge3" class="edge">
<title>Spec&#45;&gt;Mask</title>
<path fill="none" stroke="black" stroke-width="0.5" d="M37.75,-167.03C49.67,-178.52 70.67,-198.19 90,-213.5 92.26,-215.29 94.69,-217.1 97.11,-218.85"/>
<polygon fill="black" stroke="black" stroke-width="0.5" points="96.36,-220.47 101.46,-221.92 98.38,-217.61 96.36,-220.47"/>
</g>
<!-- Product -->
<g id="node5" class="node">
<title>Product</title>
<g id="a_node5"><a xlink:href="../reference/api.html#scanspec.specs.Product" xlink:title="Outer product of two Specs, nesting inner within outer. This means that" target="_top">
<polygon fill="white" stroke="black" stroke-width="0.5" points="144,-204 90,-204 90,-185 144,-185 144,-204"/>
<text text-anchor="middle" x="117" y="-192" font-family="Vera Sans, DejaVu Sans, Liberation Sans, Arial, Helvetica, sans" font-size="10.00">Product</text>
</a>
</g>
</g>
<!-- Spec&#45;&gt;Product -->
<g id="edge4" class="edge">
<title>Spec&#45;&gt;Product</title>
<path fill="none" stroke="black" stroke-width="0.5" d="M50.66,-167.03C62.17,-171.87 76.25,-177.79 88.39,-182.89"/>
<polygon fill="black" stroke="black" stroke-width="0.5" points="87.82,-184.55 93.11,-184.88 89.18,-181.32 87.82,-184.55"/>
</g>
<!-- Snake -->
<g id="node6" class="node">
<title>Snake</title>
<g id="a_node6"><a xlink:href="../reference/api.html#scanspec.specs.Snake" xlink:title="Run the Spec in reverse on every other iteration when nested inside" target="_top">
<polygon fill="white" stroke="black" stroke-width="0.5" points="144,-167 90,-167 90,-148 144,-148 144,-167"/>
<text text-anchor="middle" x="117" y="-155" font-family="Vera Sans, DejaVu Sans, Liberation Sans, Arial, Helvetica, sans" font-size="10.00">Snake</text>
</a>
</g>
</g>
<!-- Spec&#45;&gt;Snake -->
<g id="edge5" class="edge">
<title>Spec&#45;&gt;Snake</title>
<path fill="none" stroke="black" stroke-width="0.5" d="M54.4,-157.5C63.97,-157.5 74.87,-157.5 84.82,-157.5"/>
<polygon fill="black" stroke="black" stroke-width="0.5" points="84.92,-159.25 89.92,-157.5 84.92,-155.75 84.92,-159.25"/>
</g>
<!-- Spiral -->
<g id="node7" class="node">
<title>Spiral</title>
<g id="a_node7"><a xlink:href="../reference/api.html#scanspec.specs.Spiral" xlink:title="Archimedean spiral of &quot;x_axis&quot; and &quot;y_axis&quot;, starting at centre point" target="_top">
<polygon fill="white" stroke="black" stroke-width="0.5" points="144,-130 90,-130 90,-111 144,-111 144,-130"/>
<text text-anchor="middle" x="117" y="-118" font-family="Vera Sans, DejaVu Sans, Liberation Sans, Arial, Helvetica, sans" font-size="10.00">Spiral</text>
</a>
</g>
</g>
<!-- Spec&#45;&gt;Spiral -->
<g id="edge6" class="edge">
<title>Spec&#45;&gt;Spiral</title>
<path fill="none" stroke="black" stroke-width="0.5" d="M50.66,-147.97C62.17,-143.13 76.25,-137.21 88.39,-132.11"/>
<polygon fill="black" stroke="black" stroke-width="0.5" points="89.18,-133.68 93.11,-130.12 87.82,-130.45 89.18,-133.68"/>
</g>
<!-- Squash -->
<g id="node8" class="node">
<title>Squash</title>
<g id="a_node8"><a xlink:href="../reference/api.html#scanspec.specs.Squash" xlink:title="Squash the Dimensions together of the scan (but not the midpoints) into one" target="_top">
<polygon fill="white" stroke="black" stroke-width="0.5" points="144,-93 90,-93 90,-74 144,-74 144,-93"/>
<text text-anchor="middle" x="117" y="-81" font-family="Vera Sans, DejaVu Sans, Liberation Sans, Arial, Helvetica, sans" font-size="10.00">Squash</text>
</a>
</g>
</g>
<!-- Spec&#45;&gt;Squash -->
<g id="edge7" class="edge">
<title>Spec&#45;&gt;Squash</title>
<path fill="none" stroke="black" stroke-width="0.5" d="M38.27,-147.85C50.36,-136.62 71.18,-117.67 90,-102.5 92.57,-100.43 95.34,-98.3 98.08,-96.25"/>
<polygon fill="black" stroke="black" stroke-width="0.5" points="99.34,-97.5 102.32,-93.12 97.26,-94.68 99.34,-97.5"/>
</g>
<!-- Static -->
<g id="node9" class="node">
<title>Static</title>
<g id="a_node9"><a xlink:href="../reference/api.html#scanspec.specs.Static" xlink:title="A static point, repeated &quot;num&quot; times, with &quot;axis&quot; at &quot;value&quot;. Can" target="_top">
<polygon fill="white" stroke="black" stroke-width="0.5" points="144,-56 90,-56 90,-37 144,-37 144,-56"/>
<text text-anchor="middle" x="117" y="-44" font-family="Vera Sans, DejaVu Sans, Liberation Sans, Arial, Helvetica, sans" font-size="10.00">Static</text>
</a>
</g>
</g>
<!-- Spec&#45;&gt;Static -->
<g id="edge8" class="edge">
<title>Spec&#45;&gt;Static</title>
<path fill="none" stroke="black" stroke-width="0.5" d="M33.03,-147.84C42.53,-130.17 64.49,-92 90,-65.5 92.04,-63.39 94.33,-61.34 96.69,-59.42"/>
<polygon fill="black" stroke="black" stroke-width="0.5" points="98.08,-60.56 100.97,-56.12 95.94,-57.79 98.08,-60.56"/>
</g>
<!-- Zip -->
<g id="node10" class="node">
<title>Zip</title>
<g id="a_node10"><a xlink:href="../reference/api.html#scanspec.specs.Zip" xlink:title="Run two Specs in parallel, merging their midpoints together. Typically" target="_top">
<polygon fill="white" stroke="black" stroke-width="0.5" points="144,-19 90,-19 90,0 144,0 144,-19"/>
<text text-anchor="middle" x="117" y="-7" font-family="Vera Sans, DejaVu Sans, Liberation Sans, Arial, Helvetica, sans" font-size="10.00">Zip</text>
</a>
</g>
</g>
<!-- Spec&#45;&gt;Zip -->
<g id="edge9" class="edge">
<title>Spec&#45;&gt;Zip</title>
<path fill="none" stroke="black" stroke-width="0.5" d="M30.83,-147.85C37.86,-125.1 57.9,-67.09 90,-28.5 91.83,-26.3 93.97,-24.22 96.23,-22.29"/>
<polygon fill="black" stroke="black" stroke-width="0.5" points="97.53,-23.49 100.36,-19.02 95.35,-20.75 97.53,-23.49"/>
</g>
</g>
</svg>
