<?xml version="1.0" encoding="UTF-8" standalone="no"?>
<!DOCTYPE svg PUBLIC "-//W3C//DTD SVG 1.1//EN"
 "http://www.w3.org/Graphics/SVG/1.1/DTD/svg11.dtd">
<!-- Generated by graphviz version 2.40.1 (20161225.0304)
 -->
<!-- Title: inheritance392524bb86 Pages: 1 -->
<svg width="355pt" height="156pt"
 viewBox="0.00 0.00 355.00 156.00" xmlns="http://www.w3.org/2000/svg" xmlns:xlink="http://www.w3.org/1999/xlink">
<g id="graph0" class="graph" transform="scale(1 1) rotate(0) translate(4 152)">
<title>inheritance392524bb86</title>
<!-- Circle -->
<g id="node1" class="node">
<title>Circle</title>
<g id="a_node1"><a xlink:href="../reference/api.html#scanspec.regions.Circle" xlink:title="Mask contains positions of key within an xy circle of given radius" target="_top">
<polygon fill="#ffffff" stroke="#000000" stroke-width=".5" points="162,-130 108,-130 108,-111 162,-111 162,-130"/>
<text text-anchor="middle" x="135" y="-118" font-family="Vera Sans, DejaVu Sans, Liberation Sans, Arial, Helvetica, sans" font-size="10.00" fill="#000000">Circle</text>
</a>
</g>
</g>
<!-- Region -->
<g id="node2" class="node">
<title>Region</title>
<g id="a_node2"><a xlink:href="../reference/api.html#scanspec.regions.Region" xlink:title="Abstract baseclass for a Region that can `Mask` a `Spec`. Supports operators:" target="_top">
<polygon fill="#ffffff" stroke="#000000" stroke-width=".5" points="54,-74 0,-74 0,-55 54,-55 54,-74"/>
<text text-anchor="middle" x="27" y="-62" font-family="Vera Sans, DejaVu Sans, Liberation Sans, Arial, Helvetica, sans" font-size="10.00" fill="#000000">Region</text>
</a>
</g>
</g>
<!-- Region&#45;&gt;Circle -->
<g id="edge1" class="edge">
<title>Region&#45;&gt;Circle</title>
<path fill="none" stroke="#000000" stroke-width=".5" d="M41.386,-74.0984C53.9157,-82.2321 72.7315,-93.9093 90,-102.5 94.5201,-104.7487 99.3934,-106.9321 104.2059,-108.9572"/>
<polygon fill="#000000" stroke="#000000" stroke-width=".5" points="103.6933,-110.6387 108.9829,-110.9262 105.0271,-107.4028 103.6933,-110.6387"/>
</g>
<!-- CombinationOf -->
<g id="node3" class="node">
<title>CombinationOf</title>
<g id="a_node3"><a xlink:href="../reference/api.html#scanspec.regions.CombinationOf" xlink:title="Abstract baseclass for a combination of two regions, left and right" target="_top">
<polygon fill="#ffffff" stroke="#000000" stroke-width=".5" points="180,-93 90,-93 90,-74 180,-74 180,-93"/>
<text text-anchor="middle" x="135" y="-81" font-family="Vera Sans, DejaVu Sans, Liberation Sans, Arial, Helvetica, sans" font-size="10.00" fill="#000000">CombinationOf</text>
</a>
</g>
</g>
<!-- Region&#45;&gt;CombinationOf -->
<g id="edge2" class="edge">
<title>Region&#45;&gt;CombinationOf</title>
<path fill="none" stroke="#000000" stroke-width=".5" d="M54.253,-69.2945C63.4895,-70.9195 74.1229,-72.7901 84.5767,-74.6292"/>
<polygon fill="#000000" stroke="#000000" stroke-width=".5" points="84.4596,-76.3854 89.6872,-75.5283 85.0661,-72.9384 84.4596,-76.3854"/>
</g>
<!-- Range -->
<g id="node6" class="node">
<title>Range</title>
<g id="a_node6"><a xlink:href="../reference/api.html#scanspec.regions.Range" xlink:title="Mask contains positions of key &gt;= min and &lt;= max" target="_top">
<polygon fill="#ffffff" stroke="#000000" stroke-width=".5" points="162,-56 108,-56 108,-37 162,-37 162,-56"/>
<text text-anchor="middle" x="135" y="-44" font-family="Vera Sans, DejaVu Sans, Liberation Sans, Arial, Helvetica, sans" font-size="10.00" fill="#000000">Range</text>
</a>
</g>
</g>
<!-- Region&#45;&gt;Range -->
<g id="edge5" class="edge">
<title>Region&#45;&gt;Range</title>
<path fill="none" stroke="#000000" stroke-width=".5" d="M54.253,-59.9578C68.9622,-57.5063 87.2136,-54.4644 102.6412,-51.8931"/>
<polygon fill="#000000" stroke="#000000" stroke-width=".5" points="103.1115,-53.589 107.7558,-51.0407 102.5361,-50.1366 103.1115,-53.589"/>
</g>
<!-- Rectangle -->
<g id="node7" class="node">
<title>Rectangle</title>
<g id="a_node7"><a xlink:href="../reference/api.html#scanspec.regions.Rectangle" xlink:title="Mask contains positions of key within a rotated xy rectangle" target="_top">
<polygon fill="#ffffff" stroke="#000000" stroke-width=".5" points="167.5,-19 102.5,-19 102.5,0 167.5,0 167.5,-19"/>
<text text-anchor="middle" x="135" y="-7" font-family="Vera Sans, DejaVu Sans, Liberation Sans, Arial, Helvetica, sans" font-size="10.00" fill="#000000">Rectangle</text>
</a>
</g>
</g>
<!-- Region&#45;&gt;Rectangle -->
<g id="edge6" class="edge">
<title>Region&#45;&gt;Rectangle</title>
<path fill="none" stroke="#000000" stroke-width=".5" d="M42.5104,-54.9435C55.0924,-47.3614 73.4014,-36.7099 90,-28.5 95.1214,-25.9669 100.664,-23.4511 106.0514,-21.1189"/>
<polygon fill="#000000" stroke="#000000" stroke-width=".5" points="107.0268,-22.6054 110.9388,-19.0335 105.6531,-19.3862 107.0268,-22.6054"/>
</g>
<!-- DifferenceOf -->
<g id="node4" class="node">
<title>DifferenceOf</title>
<g id="a_node4"><a xlink:href="../reference/api.html#scanspec.regions.DifferenceOf" xlink:title="A position is in DifferenceOf(a, b) if it is in a and not in b. Typically" target="_top">
<polygon fill="#ffffff" stroke="#000000" stroke-width=".5" points="320.5,-148 242.5,-148 242.5,-129 320.5,-129 320.5,-148"/>
<text text-anchor="middle" x="281.5" y="-136" font-family="Vera Sans, DejaVu Sans, Liberation Sans, Arial, Helvetica, sans" font-size="10.00" fill="#000000">DifferenceOf</text>
</a>
</g>
</g>
<!-- CombinationOf&#45;&gt;DifferenceOf -->
<g id="edge3" class="edge">
<title>CombinationOf&#45;&gt;DifferenceOf</title>
<path fill="none" stroke="#000000" stroke-width=".5" d="M158.4805,-93.0789C165.4476,-96.0112 173.0675,-99.3074 180,-102.5 196.2483,-109.9829 199.2958,-114.0994 216,-120.5 222.8001,-123.1056 230.1307,-125.5015 237.3401,-127.6373"/>
<polygon fill="#000000" stroke="#000000" stroke-width=".5" points="237.0145,-129.3648 242.304,-129.0737 237.9875,-126.0027 237.0145,-129.3648"/>
</g>
<!-- IntersectionOf -->
<g id="node5" class="node">
<title>IntersectionOf</title>
<g id="a_node5"><a xlink:href="../reference/api.html#scanspec.regions.IntersectionOf" xlink:title="A position is in IntersectionOf(a, b) if it is in both a and b. Typically" target="_top">
<polygon fill="#ffffff" stroke="#000000" stroke-width=".5" points="324.5,-111 238.5,-111 238.5,-92 324.5,-92 324.5,-111"/>
<text text-anchor="middle" x="281.5" y="-99" font-family="Vera Sans, DejaVu Sans, Liberation Sans, Arial, Helvetica, sans" font-size="10.00" fill="#000000">IntersectionOf</text>
</a>
</g>
</g>
<!-- CombinationOf&#45;&gt;IntersectionOf -->
<g id="edge4" class="edge">
<title>CombinationOf&#45;&gt;IntersectionOf</title>
<path fill="none" stroke="#000000" stroke-width=".5" d="M180.1502,-89.0475C196.9122,-91.107 215.9881,-93.4508 233.034,-95.5451"/>
<polygon fill="#000000" stroke="#000000" stroke-width=".5" points="233.078,-97.3136 238.2541,-96.1865 233.5049,-93.8397 233.078,-97.3136"/>
</g>
<!-- SymmetricDifferenceOf -->
<g id="node8" class="node">
<title>SymmetricDifferenceOf</title>
<g id="a_node8"><a xlink:href="../reference/api.html#scanspec.regions.SymmetricDifferenceOf" xlink:title="A position is in SymmetricDifferenceOf(a, b) if it is in either a or b," target="_top">
<polygon fill="#ffffff" stroke="#000000" stroke-width=".5" points="347,-74 216,-74 216,-55 347,-55 347,-74"/>
<text text-anchor="middle" x="281.5" y="-62" font-family="Vera Sans, DejaVu Sans, Liberation Sans, Arial, Helvetica, sans" font-size="10.00" fill="#000000">SymmetricDifferenceOf</text>
</a>
</g>
</g>
<!-- CombinationOf&#45;&gt;SymmetricDifferenceOf -->
<g id="edge7" class="edge">
<title>CombinationOf&#45;&gt;SymmetricDifferenceOf</title>
<path fill="none" stroke="#000000" stroke-width=".5" d="M180.1502,-77.6443C189.8317,-76.3887 200.2851,-75.033 210.6735,-73.6857"/>
<polygon fill="#000000" stroke="#000000" stroke-width=".5" points="211.0309,-75.4041 215.7643,-73.0254 210.5807,-71.9331 211.0309,-75.4041"/>
</g>
<!-- UnionOf -->
<g id="node9" class="node">
<title>UnionOf</title>
<g id="a_node9"><a xlink:href="../reference/api.html#scanspec.regions.UnionOf" xlink:title="A position is in UnionOf(a, b) if it is in either a or b. Typically" target="_top">
<polygon fill="#ffffff" stroke="#000000" stroke-width=".5" points="309.5,-37 253.5,-37 253.5,-18 309.5,-18 309.5,-37"/>
<text text-anchor="middle" x="281.5" y="-25" font-family="Vera Sans, DejaVu Sans, Liberation Sans, Arial, Helvetica, sans" font-size="10.00" fill="#000000">UnionOf</text>
</a>
</g>
</g>
<!-- CombinationOf&#45;&gt;UnionOf -->
<g id="edge8" class="edge">
<title>CombinationOf&#45;&gt;UnionOf</title>
<path fill="none" stroke="#000000" stroke-width=".5" d="M160.427,-73.8703C166.8695,-71.2829 173.7372,-68.3955 180,-65.5 196.4215,-57.9078 199.2257,-53.2773 216,-46.5 226.2834,-42.3452 237.8109,-38.6871 248.2952,-35.7184"/>
<polygon fill="#000000" stroke="#000000" stroke-width=".5" points="248.9977,-37.3398 253.3483,-34.3173 248.0624,-33.967 248.9977,-37.3398"/>
</g>
</g>
</svg>
